<?xml version="1.0" standalone="no"?>
<!DOCTYPE svg PUBLIC "-//W3C//DTD SVG 20010904//EN"
 "http://www.w3.org/TR/2001/REC-SVG-20010904/DTD/svg10.dtd">
<svg version="1.0" xmlns="http://www.w3.org/2000/svg"
 width="256.000000pt" height="256.000000pt" viewBox="0 0 256.000000 256.000000"
 preserveAspectRatio="xMidYMid meet">
<metadata>
Created by potrace 1.11, written by Peter Selinger 2001-2013
</metadata>
<g transform="translate(0.000000,256.000000) scale(0.100000,-0.100000)"
fill="#000000" stroke="none">
<path d="M1059 2524 c-517 -93 -924 -499 -1025 -1022 -23 -117 -23 -338 0
-454 103 -531 515 -935 1045 -1023 151 -26 368 -17 511 20 574 149 960 644
960 1230 0 345 -127 653 -370 895 -186 187 -421 310 -677 355 -109 19 -339 18
-444 -1z m414 -771 c76 -36 163 -116 196 -181 72 -141 63 -355 -22 -488 -29
-47 -102 -116 -146 -139 l-32 -16 37 -44 c83 -102 157 -112 241 -32 29 27 63
32 63 9 0 -20 -61 -102 -96 -128 -30 -23 -48 -29 -89 -29 -69 0 -118 35 -175
123 l-44 68 -115 -1 c-110 0 -119 2 -184 32 -163 77 -257 230 -257 419 0 172
93 330 235 400 79 38 107 43 220 41 89 -2 108 -6 168 -34z m417 -1019 c11 -12
10 -18 -3 -32 -16 -15 -18 -15 -34 0 -13 14 -14 20 -3 32 7 9 16 16 20 16 4 0
13 -7 20 -16z"/>
<path d="M1186 1735 c-88 -31 -151 -116 -175 -232 -6 -31 -11 -104 -11 -162 0
-157 33 -273 93 -329 l24 -23 35 35 c19 19 53 40 76 46 35 11 48 11 85 -4 24
-9 63 -33 86 -52 l42 -36 26 23 c64 60 103 190 103 347 0 217 -63 349 -189
391 -46 15 -147 13 -195 -4z"/>
<path d="M1230 1019 c-27 -11 -70 -48 -70 -60 0 -23 185 -37 207 -15 10 10
-38 57 -74 72 -18 8 -34 14 -35 13 -2 0 -14 -5 -28 -10z"/>
</g>
</svg>
